<svg id="visual" viewBox="0 0 900 600" width="900" height="600" xmlns="http://www.w3.org/2000/svg" xmlns:xlink="http://www.w3.org/1999/xlink" version="1.1"><g stroke-width="1" stroke-linejoin="bevel"><path d="M419 315L371.5 319L455 370Z" fill="#00041c" stroke="#00041c"></path><path d="M371.5 319L371.5 428L455 370Z" fill="#040d2d" stroke="#040d2d"></path><path d="M527.5 277L446 238L419 315Z" fill="#040d2d" stroke="#040d2d"></path><path d="M419 315L446 238L371.5 319Z" fill="#0d1a75" stroke="#0d1a75"></path><path d="M260 302L299.5 463L371.5 428Z" fill="#030924" stroke="#030924"></path><path d="M349.5 193L260 302L371.5 319Z" fill="#001548" stroke="#001548"></path><path d="M371.5 319L260 302L371.5 428Z" fill="#00133f" stroke="#00133f"></path><path d="M455 370L527.5 277L419 315Z" fill="#001751" stroke="#001751"></path><path d="M299.5 463L453 532L371.5 428Z" fill="#00041c" stroke="#00041c"></path><path d="M371.5 428L453 532L455 370Z" fill="#0d1a75" stroke="#0d1a75"></path><path d="M455 370L593.5 377L527.5 277Z" fill="#0d1a75" stroke="#0d1a75"></path><path d="M446 238L349.5 193L371.5 319Z" fill="#061a6c" stroke="#061a6c"></path><path d="M260 302L215 377L299.5 463Z" fill="#021136" stroke="#021136"></path><path d="M453 532L538.5 491L455 370Z" fill="#00185a" stroke="#00185a"></path><path d="M538.5 491L593.5 377L455 370Z" fill="#00185a" stroke="#00185a"></path><path d="M322.5 600L442 600L453 532Z" fill="#061a6c" stroke="#061a6c"></path><path d="M453 532L524.5 600L538.5 491Z" fill="#001548" stroke="#001548"></path><path d="M349.5 193L199 233L260 302Z" fill="#001751" stroke="#001751"></path><path d="M260 302L199 233L215 377Z" fill="#0d1a75" stroke="#0d1a75"></path><path d="M591.5 190L452 131L446 238Z" fill="#021136" stroke="#021136"></path><path d="M446 238L452 131L349.5 193Z" fill="#00185a" stroke="#00185a"></path><path d="M349.5 193L249 119L199 233Z" fill="#00133f" stroke="#00133f"></path><path d="M591.5 190L446 238L527.5 277Z" fill="#021136" stroke="#021136"></path><path d="M257 600L322.5 600L299.5 463Z" fill="#0d1a75" stroke="#0d1a75"></path><path d="M299.5 463L322.5 600L453 532Z" fill="#001751" stroke="#001751"></path><path d="M538.5 491L645 419L593.5 377Z" fill="#0d1a75" stroke="#0d1a75"></path><path d="M672 299L591.5 190L527.5 277Z" fill="#00133f" stroke="#00133f"></path><path d="M656 466L645 419L538.5 491Z" fill="#061a6c" stroke="#061a6c"></path><path d="M98.5 382L191 508L215 377Z" fill="#00185a" stroke="#00185a"></path><path d="M215 377L191 508L299.5 463Z" fill="#011963" stroke="#011963"></path><path d="M672 299L527.5 277L593.5 377Z" fill="#030924" stroke="#030924"></path><path d="M442 600L524.5 600L453 532Z" fill="#061a6c" stroke="#061a6c"></path><path d="M191 508L257 600L299.5 463Z" fill="#021136" stroke="#021136"></path><path d="M667 600L656 466L538.5 491Z" fill="#030924" stroke="#030924"></path><path d="M645 419L672 299L593.5 377Z" fill="#001751" stroke="#001751"></path><path d="M788.5 335L672 299L792.5 379Z" fill="#040d2d" stroke="#040d2d"></path><path d="M316.5 71L249 119L349.5 193Z" fill="#00133f" stroke="#00133f"></path><path d="M125.5 202L116.5 267L199 233Z" fill="#00041c" stroke="#00041c"></path><path d="M199 233L116.5 267L215 377Z" fill="#00133f" stroke="#00133f"></path><path d="M591.5 190L555.5 110L452 131Z" fill="#001751" stroke="#001751"></path><path d="M452 131L316.5 71L349.5 193Z" fill="#040d2d" stroke="#040d2d"></path><path d="M701 110L555.5 110L591.5 190Z" fill="#030924" stroke="#030924"></path><path d="M116.5 267L98.5 382L215 377Z" fill="#001548" stroke="#001548"></path><path d="M191 508L151.5 600L257 600Z" fill="#0d1a75" stroke="#0d1a75"></path><path d="M438 0L316.5 71L452 131Z" fill="#021136" stroke="#021136"></path><path d="M249 119L125.5 202L199 233Z" fill="#0d1a75" stroke="#0d1a75"></path><path d="M0 337L0 377L98.5 382Z" fill="#00041c" stroke="#00041c"></path><path d="M116.5 123L125.5 202L249 119Z" fill="#00185a" stroke="#00185a"></path><path d="M76.5 524L151.5 600L191 508Z" fill="#001751" stroke="#001751"></path><path d="M524.5 600L667 600L538.5 491Z" fill="#030924" stroke="#030924"></path><path d="M788.5 335L712 195L672 299Z" fill="#011963" stroke="#011963"></path><path d="M672 299L645 419L792.5 379Z" fill="#061a6c" stroke="#061a6c"></path><path d="M672 299L712 195L591.5 190Z" fill="#00041c" stroke="#00041c"></path><path d="M0 377L76.5 524L98.5 382Z" fill="#0d1a75" stroke="#0d1a75"></path><path d="M98.5 382L76.5 524L191 508Z" fill="#011963" stroke="#011963"></path><path d="M556.5 0L438 0L555.5 110Z" fill="#030924" stroke="#030924"></path><path d="M555.5 110L438 0L452 131Z" fill="#001751" stroke="#001751"></path><path d="M197 0L116.5 123L249 119Z" fill="#001548" stroke="#001548"></path><path d="M0 337L98.5 382L116.5 267Z" fill="#030924" stroke="#030924"></path><path d="M197 0L249 119L316.5 71Z" fill="#00185a" stroke="#00185a"></path><path d="M438 0L322.5 0L316.5 71Z" fill="#00133f" stroke="#00133f"></path><path d="M792.5 379L645 419L656 466Z" fill="#00185a" stroke="#00185a"></path><path d="M823.5 514L792.5 379L656 466Z" fill="#040d2d" stroke="#040d2d"></path><path d="M765.5 175L701 110L712 195Z" fill="#00185a" stroke="#00185a"></path><path d="M712 195L701 110L591.5 190Z" fill="#021136" stroke="#021136"></path><path d="M654 0L556.5 0L555.5 110Z" fill="#001751" stroke="#001751"></path><path d="M0 337L116.5 267L0 220Z" fill="#00133f" stroke="#00133f"></path><path d="M0 220L116.5 267L125.5 202Z" fill="#0d1a75" stroke="#0d1a75"></path><path d="M788.5 335L765.5 175L712 195Z" fill="#021136" stroke="#021136"></path><path d="M322.5 0L197 0L316.5 71Z" fill="#021136" stroke="#021136"></path><path d="M0 87L0 220L116.5 123Z" fill="#021136" stroke="#021136"></path><path d="M116.5 123L0 220L125.5 202Z" fill="#00185a" stroke="#00185a"></path><path d="M0 377L0 524L76.5 524Z" fill="#00041c" stroke="#00041c"></path><path d="M76.5 524L0 600L151.5 600Z" fill="#030924" stroke="#030924"></path><path d="M701 110L654 0L555.5 110Z" fill="#0d1a75" stroke="#0d1a75"></path><path d="M770.5 0L654 0L701 110Z" fill="#0d1a75" stroke="#0d1a75"></path><path d="M786.5 600L823.5 514L656 466Z" fill="#021136" stroke="#021136"></path><path d="M792.5 379L900 383L788.5 335Z" fill="#0d1a75" stroke="#0d1a75"></path><path d="M900 180L804.5 90L765.5 175Z" fill="#001751" stroke="#001751"></path><path d="M667 600L786.5 600L656 466Z" fill="#00133f" stroke="#00133f"></path><path d="M0 524L0 600L76.5 524Z" fill="#00133f" stroke="#00133f"></path><path d="M197 0L113.5 0L116.5 123Z" fill="#00185a" stroke="#00185a"></path><path d="M113.5 0L0 87L116.5 123Z" fill="#011963" stroke="#011963"></path><path d="M900 180L765.5 175L788.5 335Z" fill="#061a6c" stroke="#061a6c"></path><path d="M765.5 175L804.5 90L701 110Z" fill="#001548" stroke="#001548"></path><path d="M900 511L900 383L823.5 514Z" fill="#030924" stroke="#030924"></path><path d="M823.5 514L900 383L792.5 379Z" fill="#040d2d" stroke="#040d2d"></path><path d="M900 383L900 320L788.5 335Z" fill="#030924" stroke="#030924"></path><path d="M900 600L900 511L823.5 514Z" fill="#030924" stroke="#030924"></path><path d="M900 0L770.5 0L804.5 90Z" fill="#011963" stroke="#011963"></path><path d="M804.5 90L770.5 0L701 110Z" fill="#021136" stroke="#021136"></path><path d="M900 320L900 180L788.5 335Z" fill="#00041c" stroke="#00041c"></path><path d="M113.5 0L0 0L0 87Z" fill="#061a6c" stroke="#061a6c"></path><path d="M786.5 600L900 600L823.5 514Z" fill="#00041c" stroke="#00041c"></path><path d="M900 180L900 100L804.5 90Z" fill="#00185a" stroke="#00185a"></path><path d="M900 100L900 0L804.5 90Z" fill="#001548" stroke="#001548"></path></g></svg>